<svg xmlns="http://www.w3.org/2000/svg" version="1.1" xmlns:xlink="http://www.w3.org/1999/xlink" xmlns:svgjs="http://svgjs.dev/svgjs" width="1500" height="379" viewBox="0 0 1500 379"><g transform="matrix(1,0,0,1,0.25491573033696113,0.40637222222230207)"><svg viewBox="0 0 356 90" data-background-color="#ffffff" preserveAspectRatio="xMidYMid meet" height="379" width="1500" xmlns="http://www.w3.org/2000/svg" xmlns:xlink="http://www.w3.org/1999/xlink"><g id="tight-bounds" transform="matrix(1,0,0,1,-0.06049999999996203,-0.09650000000002024)"><svg viewBox="0 0 356.12052 90.19258054054053" height="90.19258054054053" width="356.12052"><g><svg viewBox="0 0 356.12052 90.19258054054053" height="90.19258054054053" width="356.12052"><g><svg viewBox="0 0 356.12052 90.19258054054053" height="90.19258054054053" width="356.12052"><g><path d="M0 90.193v-90.193h356.121v90.193z" fill="#3a6ad6" stroke="transparent" stroke-width="0" rx="0%" data-fill-palette-color="tertiary"></path><path d="M3.283 86.909v-83.626h349.554v83.626z" fill="#ffffff" stroke="transparent" stroke-width="0" rx="0%" data-fill-palette-color="quaternary"></path><path d="M9.85 80.343v-70.493h336.421v70.493z" fill="#3a6ad6" stroke="transparent" stroke-width="0" data-fill-palette-color="tertiary"></path></g><g transform="matrix(1,0,0,1,19.69974,19.69974)" id="textblocktransform"><svg viewBox="0 0 316.72104 50.793100540540536" height="50.793100540540536" width="316.72104" id="textblock"><g><svg viewBox="0 0 316.72104 50.793100540540536" height="50.793100540540536" width="316.72104"><g transform="matrix(1,0,0,1,0,0)"><svg width="316.72104" viewBox="4.63 -37.27 293.19 47.02" height="50.793100540540536" data-palette-color="#ffffff"><path d="M9.08 0L4.63 0Q4.63-2.98 4.63-5.73 4.63-8.47 4.63-11.78L4.63-11.78 4.63-23.75Q4.63-27.08 4.63-29.88 4.63-32.68 4.63-35.65L4.63-35.65Q6.65-35.65 9.86-35.65 13.08-35.65 17.23-35.65L17.23-35.65Q21.3-35.65 23.96-34.58 26.63-33.5 27.95-31.24 29.28-28.98 29.28-25.45L29.28-25.45Q29.28-22.18 28.06-19.64 26.85-17.1 24.01-15.65 21.18-14.2 16.28-14.2L16.28-14.2Q15.03-14.2 13.6-14.2 12.18-14.2 10.83-14.2 9.47-14.2 8.47-14.2L8.47-14.2 8.47-17.95 15.43-17.95Q18.63-17.95 20.66-18.7 22.7-19.45 23.68-21.1 24.65-22.75 24.65-25.43L24.65-25.43Q24.65-27.63 23.94-28.93 23.23-30.23 22.06-30.86 20.9-31.5 19.55-31.7 18.2-31.9 16.93-31.9L16.93-31.9 6.88-31.9 9.08-35Q9.08-32 9.08-29.21 9.08-26.43 9.08-23.1L9.08-23.1 9.08-11.78Q9.08-8.47 9.08-5.73 9.08-2.98 9.08 0L9.08 0ZM41.47 0.5L41.47 0.5Q39.25 0.5 37.57-0.36 35.9-1.23 34.96-2.83 34.02-4.42 34.02-6.68L34.02-6.68Q34.02-8.7 34.75-10.09 35.47-11.48 36.65-12.35 37.82-13.23 39.25-13.71 40.67-14.2 42.1-14.45L42.1-14.45 49.87-15.8Q49.97-18.32 49.21-19.61 48.45-20.9 47.07-21.35 45.7-21.8 44.02-21.8L44.02-21.8Q43.17-21.8 42.2-21.68 41.22-21.55 40.13-21.29 39.05-21.03 37.85-20.63 36.65-20.23 35.32-19.65L35.32-19.65 35.1-23.43Q36-23.8 37.13-24.15 38.27-24.5 39.56-24.79 40.85-25.08 42.2-25.23 43.55-25.38 44.92-25.38L44.92-25.38Q47.7-25.38 49.71-24.5 51.72-23.63 52.8-21.75 53.87-19.88 53.87-16.85L53.87-16.85Q53.87-15.7 53.87-13.93 53.87-12.15 53.87-10.55L53.87-10.55 53.87-7.33Q53.87-5.63 53.87-3.86 53.87-2.1 53.87 0L53.87 0 50.12 0 49.9-3.53 49.5-3.53Q48.72-2.53 47.55-1.6 46.37-0.68 44.84-0.09 43.3 0.5 41.47 0.5ZM42.67-2.93L42.67-2.93Q44-2.93 45.32-3.48 46.65-4.03 47.81-5.11 48.97-6.2 49.77-7.85L49.77-7.85 49.8-13.2Q49.4-12.98 48.73-12.75 48.07-12.53 46.76-12.24 45.45-11.95 43.12-11.53L43.12-11.53Q41.7-11.28 40.6-10.71 39.5-10.15 38.86-9.19 38.22-8.22 38.22-6.85L38.22-6.85Q38.22-4.7 39.51-3.81 40.8-2.93 42.67-2.93ZM65.95 9.6L61.82 9.75Q61.82 7 61.82 4.36 61.82 1.73 61.82-1.35L61.82-1.35 61.82-13.45Q61.82-16.2 61.82-19.07 61.82-21.95 61.82-24.8L61.82-24.8 65.57-25.05 65.67-21.83 66.09-21.83Q66.84-22.8 68-23.61 69.15-24.43 70.63-24.91 72.12-25.4 73.9-25.4L73.9-25.4Q77.3-25.4 79.68-23.71 82.07-22.03 83.32-19.1 84.57-16.18 84.57-12.48L84.57-12.48Q84.57-9 83.41-6.04 82.25-3.08 79.88-1.26 77.52 0.55 73.97 0.55L73.97 0.55Q72.32 0.55 70.92 0.11 69.52-0.33 68.38-1.14 67.25-1.95 66.32-3.13L66.32-3.13 65.95-3.13 65.95-1.18Q65.95 1.75 65.95 4.29 65.95 6.83 65.95 9.6L65.95 9.6ZM72.72-3.15L72.72-3.15Q75.4-3.15 77.08-4.48 78.77-5.8 79.56-7.91 80.34-10.03 80.34-12.45L80.34-12.45Q80.34-14.98 79.51-17.06 78.67-19.15 76.97-20.4 75.27-21.65 72.65-21.65L72.65-21.65Q71.34-21.65 70.09-21.26 68.84-20.88 67.78-20.11 66.72-19.35 65.95-18.23L65.95-18.23 65.95-7.2Q66.7-5.93 67.68-5.03 68.67-4.13 69.92-3.64 71.17-3.15 72.72-3.15ZM102.59 0.55L102.59 0.55Q98.14 0.55 95.27-1.15 92.39-2.85 90.99-5.8 89.59-8.75 89.59-12.55L89.59-12.55Q89.59-16.3 90.97-19.2 92.34-22.1 94.92-23.74 97.49-25.38 101.07-25.38L101.07-25.38Q104.22-25.38 106.48-24.15 108.74-22.93 109.97-20.56 111.19-18.2 111.19-14.73L111.19-14.73Q111.19-13.8 111.16-13.06 111.12-12.33 110.99-11.58L110.99-11.58 107.37-13.4Q107.42-13.8 107.43-14.16 107.44-14.53 107.44-14.88L107.44-14.88Q107.44-18.4 105.69-20.24 103.94-22.08 101.12-22.08L101.12-22.08Q98.84-22.08 97.2-20.91 95.57-19.75 94.67-17.7 93.77-15.65 93.77-13.03L93.77-13.03 93.77-12.45Q93.77-9.55 94.77-7.45 95.77-5.35 97.81-4.21 99.84-3.08 102.99-3.08L102.99-3.08Q104.17-3.08 105.48-3.26 106.79-3.45 108.08-3.85 109.37-4.25 110.54-4.9L110.54-4.9 110.72-1.18Q109.77-0.65 108.52-0.26 107.27 0.13 105.77 0.34 104.27 0.55 102.59 0.55ZM110.99-11.58L91.32-11.58 91.32-14.53 108.47-14.68 110.99-13.73 110.99-11.58ZM121.89 0L117.77 0Q117.77-2.78 117.77-5.33 117.77-7.88 117.77-10.95L117.77-10.95 117.77-13.45Q117.77-16.2 117.77-19.07 117.77-21.95 117.77-24.8L117.77-24.8 121.37-25.05 121.49-20 121.92-20Q122.94-22.28 124.28-23.44 125.62-24.6 126.99-25 128.37-25.4 129.52-25.4L129.52-25.4Q130.22-25.4 130.91-25.3 131.62-25.2 132.24-24.98L132.24-24.98 131.87-20.83Q131.04-20.98 130.38-21.08 129.72-21.18 128.84-21.18L128.84-21.18Q128.12-21.18 127.2-20.96 126.29-20.75 125.33-20.09 124.37-19.43 123.47-18.11 122.56-16.8 121.89-14.63L121.89-14.63 121.89-10.78Q121.89-7.85 121.89-5.31 121.89-2.78 121.89 0L121.89 0ZM152.08 0L147.63 0Q147.63-2.98 147.63-5.73 147.63-8.47 147.63-11.78L147.63-11.78 147.63-23.75Q147.63-27.08 147.63-29.88 147.63-32.68 147.63-35.65L147.63-35.65Q149.66-35.65 152.87-35.65 156.08-35.65 160.23-35.65L160.23-35.65Q164.31-35.65 166.97-34.58 169.63-33.5 170.96-31.24 172.28-28.98 172.28-25.45L172.28-25.45Q172.28-22.18 171.07-19.64 169.86-17.1 167.02-15.65 164.19-14.2 159.28-14.2L159.28-14.2Q158.03-14.2 156.61-14.2 155.19-14.2 153.83-14.2 152.48-14.2 151.48-14.2L151.48-14.2 151.48-17.95 158.44-17.95Q161.63-17.95 163.67-18.7 165.71-19.45 166.69-21.1 167.66-22.75 167.66-25.43L167.66-25.43Q167.66-27.63 166.95-28.93 166.23-30.23 165.07-30.86 163.91-31.5 162.56-31.7 161.21-31.9 159.94-31.9L159.94-31.9 149.88-31.9 152.08-35Q152.08-32 152.08-29.21 152.08-26.43 152.08-23.1L152.08-23.1 152.08-11.78Q152.08-8.47 152.08-5.73 152.08-2.98 152.08 0L152.08 0ZM182.81 0L178.68 0Q178.68-2.78 178.68-5.33 178.68-7.88 178.68-10.95L178.68-10.95 178.68-13.45Q178.68-16.2 178.68-19.07 178.68-21.95 178.68-24.8L178.68-24.8 182.28-25.05 182.41-20 182.83-20Q183.86-22.28 185.19-23.44 186.53-24.6 187.91-25 189.28-25.4 190.43-25.4L190.43-25.4Q191.13-25.4 191.83-25.3 192.53-25.2 193.16-24.98L193.16-24.98 192.78-20.83Q191.96-20.98 191.29-21.08 190.63-21.18 189.76-21.18L189.76-21.18Q189.03-21.18 188.12-20.96 187.21-20.75 186.25-20.09 185.28-19.43 184.38-18.11 183.48-16.8 182.81-14.63L182.81-14.63 182.81-10.78Q182.81-7.85 182.81-5.31 182.81-2.78 182.81 0L182.81 0ZM209.38 0.55L209.38 0.55Q206.3 0.55 203.97-0.51 201.63-1.58 200.05-3.4 198.48-5.23 197.67-7.59 196.85-9.95 196.85-12.55L196.85-12.55Q196.85-16.28 198.37-19.16 199.88-22.05 202.67-23.73 205.45-25.4 209.3-25.4L209.3-25.4Q212.28-25.4 214.58-24.43 216.88-23.45 218.48-21.7 220.08-19.95 220.91-17.61 221.73-15.28 221.73-12.55L221.73-12.55Q221.73-8.88 220.23-5.9 218.73-2.93 215.97-1.19 213.2 0.55 209.38 0.55ZM209.38-3.05L209.38-3.05Q212.1-3.05 213.91-4.4 215.7-5.75 216.6-7.93 217.5-10.1 217.5-12.55L217.5-12.55Q217.5-15.35 216.5-17.43 215.5-19.5 213.68-20.65 211.85-21.8 209.35-21.8L209.35-21.8Q206.66-21.8 204.8-20.58 202.95-19.35 202.02-17.25 201.08-15.15 201.08-12.55L201.08-12.55Q201.08-10.1 201.99-7.93 202.91-5.75 204.75-4.4 206.6-3.05 209.38-3.05ZM234.28 0L230.15 0Q230.15-2.78 230.15-5.33 230.15-7.88 230.15-10.95L230.15-10.95 230.15-13.45Q230.15-14.98 230.15-16.66 230.15-18.35 230.15-20.18 230.15-22 230.15-23.96 230.15-25.93 230.15-28.05L230.15-28.05Q230.15-30.7 230.86-32.48 231.58-34.25 232.84-35.3 234.1-36.35 235.73-36.81 237.35-37.27 239.2-37.27L239.2-37.27Q240.1-37.27 240.95-37.19 241.8-37.1 242.51-36.95 243.23-36.8 243.73-36.6L243.73-36.6 243.35-33.02Q242.55-33.33 241.64-33.49 240.73-33.65 239.73-33.65L239.73-33.65Q236.8-33.65 235.47-32.24 234.13-30.83 234.13-27.95L234.13-27.95Q234.13-27.18 234.13-26.21 234.13-25.25 234.13-24.8L234.13-24.8 234.28-23.88 234.28-10.95Q234.28-7.88 234.28-5.33 234.28-2.78 234.28 0L234.28 0ZM231.33-21.53L225.45-21.53 225.45-24.8 242.68-24.8 242.68-21.53Q240.18-21.53 237.8-21.53 235.43-21.53 233.03-21.53L233.03-21.53 231.33-21.53ZM252.47 0L248.32 0Q248.32-2.78 248.32-5.33 248.32-7.88 248.32-10.95L248.32-10.95 248.32-13.45Q248.32-15.68 248.32-17.56 248.32-19.45 248.32-21.21 248.32-22.98 248.32-24.8L248.32-24.8 252.47-24.95Q252.47-23.1 252.47-21.31 252.47-19.53 252.47-17.61 252.47-15.7 252.47-13.45L252.47-13.45 252.47-10.95Q252.47-7.88 252.47-5.33 252.47-2.78 252.47 0L252.47 0ZM250.32-30.53L250.32-30.53Q248.97-30.53 248.13-31.28 247.28-32.02 247.28-33.58L247.28-33.58Q247.28-35.1 248.13-35.86 248.97-36.63 250.38-36.63L250.38-36.63Q251.75-36.63 252.57-35.84 253.4-35.05 253.4-33.58L253.4-33.58Q253.4-32.02 252.57-31.28 251.75-30.53 250.32-30.53ZM270.52 0.55L270.52 0.55Q268.05 0.55 266.32-0.31 264.6-1.18 263.71-2.94 262.82-4.7 262.82-7.45L262.82-7.45Q262.82-9.63 262.82-11.76 262.82-13.9 262.82-15.96 262.82-18.03 262.82-19.94 262.82-21.85 262.82-23.6L262.82-23.6Q262.82-26.15 262.82-28.33 262.82-30.5 262.82-32.85L262.82-32.85 266.9-33.75Q266.9-31.9 266.9-30.33 266.9-28.75 266.9-27.15 266.9-25.55 266.9-23.6L266.9-23.6 266.9-8.43Q266.9-5.75 268.03-4.4 269.17-3.05 271.52-3.05L271.52-3.05Q272.45-3.05 273.55-3.36 274.65-3.68 275.5-4.35L275.5-4.35 275.85-0.73Q275.35-0.35 274.5-0.06 273.65 0.23 272.62 0.39 271.6 0.55 270.52 0.55ZM263.92-21.53L258.05-21.53 258.05-24.8 275.6-24.8 275.6-21.53Q273.1-21.53 270.56-21.53 268.02-21.53 265.62-21.53L265.62-21.53 263.92-21.53ZM288.62 0.55L288.62 0.55Q287.07 0.55 285.51 0.3 283.94 0.05 282.57-0.36 281.19-0.78 280.17-1.3L280.17-1.3 280.5-5.18Q281.64-4.53 282.96-4.04 284.27-3.55 285.68-3.29 287.09-3.03 288.52-3.03L288.52-3.03Q289.89-3.03 291.06-3.34 292.22-3.65 292.91-4.49 293.59-5.33 293.59-6.93L293.59-6.93Q293.59-7.98 293-8.65 292.39-9.33 290.98-9.88 289.57-10.43 287.17-11.1L287.17-11.1Q285.19-11.65 283.64-12.45 282.09-13.25 281.21-14.6 280.32-15.95 280.32-18.13L280.32-18.13Q280.32-21.5 282.53-23.44 284.75-25.38 288.5-25.38L288.5-25.38Q290.05-25.38 291.5-25.11 292.94-24.85 294.17-24.43 295.39-24 296.3-23.53L296.3-23.53 295.94-19.65Q294.75-20.4 293.47-20.89 292.19-21.38 291.02-21.59 289.84-21.8 288.94-21.8L288.94-21.8Q287.92-21.8 286.91-21.51 285.89-21.23 285.22-20.46 284.55-19.7 284.55-18.28L284.55-18.28Q284.55-17.25 285.02-16.55 285.5-15.85 286.67-15.3 287.84-14.75 289.92-14.15L289.92-14.15Q292.39-13.43 294.16-12.64 295.92-11.85 296.87-10.58 297.82-9.3 297.82-7.05L297.82-7.05Q297.82-4.88 296.87-3.16 295.92-1.45 293.89-0.45 291.87 0.55 288.62 0.55Z" opacity="1" transform="matrix(1,0,0,1,0,0)" fill="#ffffff" class="wordmark-text-0" data-fill-palette-color="quaternary" id="text-0"></path></svg></g></svg></g></svg></g></svg></g><g></g></svg></g><defs></defs></svg><rect width="356.12052" height="90.19258054054053" fill="none" stroke="none" visibility="hidden"></rect></g></svg></g></svg>